#!OML:ASF F:\VICON\USERDATA\INSTALL\rory3\rory3.ASF
:FULLY-SPECIFIED
:DEGREES
827
root 4.51343 17.3518 2.43435 5.90054 -12.0736 -4.864
lowerback 12.1319 0.263492 4.02472
upperback 4.9079 0.799872 1.1504
thorax -1.62002 0.416834 -1.17578
lowerneck -12.7789 -0.22241 -2.75123
upperneck 35.9275 0.409747 -0.239399
head 14.4969 -0.277809 0.442152
rclavicle 3.77442e-014 -7.55382e-015
rhumerus -31.5794 -3.10031 -17.5753
rradius 35.2549
rwrist 10.0171
rhand -20.3386 -46.0439
rfingers 7.12502
rthumb 6.01296 -75.9386
lclavicle 3.77442e-014 -7.55382e-015
lhumerus -29.8659 2.61772 11.7486
lradius 29.3632
lwrist 11.2648
lhand -25.2481 -28.2159
lfingers 7.12502
lthumb 1.27198 1.76001
rfemur -99.5743 3.20277 28.1281
rtibia 97.661
rfoot 47.7764 3.73201
rtoes -7.79241
lfemur -19.2468 -0.450312 -24.087
ltibia 30.7215
lfoot -13.6794 10.2413
ltoes 12.85
828
root 4.51484 17.3526 2.43393 5.88208 -12.1088 -4.75867
lowerback 12.1052 0.284596 3.94418
upperback 4.91528 0.816544 1.12934
thorax -1.59823 0.424985 -1.15427
lowerneck -12.7455 -0.251668 -2.83785
upperneck 35.8706 0.360527 -0.15875
head 14.4631 -0.298581 0.482846
rclavicle -2.59662e-015 1.41137e-014
rhumerus -31.5831 -3.15165 -17.581
rradius 35.1072
rwrist 10.1918
rhand -20.7123 -45.5887
rfingers 7.12502
rthumb 5.65214 -75.4933
lclavicle -2.59662e-015 1.41137e-014
lhumerus -29.8158 2.41563 11.8202
lradius 29.4372
lwrist 11.2736
lhand -25.2856 -28.4276
lfingers 7.12502
lthumb 1.2357 1.54855
rfemur -99.6405 3.20246 27.9959
rtibia 97.7346
rfoot 47.714 3.91335
rtoes -7.78123
lfemur -19.2622 -0.499661 -24.1963
ltibia 30.6631
lfoot -13.5312 10.3492
ltoes 11.8454
829
root 4.51723 17.355 2.43662 5.8264 -12.1694 -4.74277
lowerback 12.1106 0.306735 3.97544
upperback 4.90667 0.849651 1.12695
thorax -1.60791 0.441491 -1.17876
lowerneck -12.6053 -0.273592 -2.89177
upperneck 35.7852 0.327043 -0.130604
head 14.3918 -0.314752 0.498517
rclavicle 1.69588e-014 -1.87852e-014
rhumerus -31.6205 -3.24577 -17.5369
rradius 35.0056
rwrist 10.5156
rhand -20.6535 -45.5417
rfingers 7.12502
rthumb 5.70893 -75.4448
lclavicle 1.69588e-014 -1.87852e-014
lhumerus -29.7612 2.28448 11.8607
lradius 29.2178
lwrist 10.7458
lhand -25.1591 -30.5334
lfingers 7.12502
lthumb 1.35789 -0.557967
rfemur -99.5921 3.239 27.9307
rtibia 97.8291
rfoot 47.6176 3.87289
rtoes -7.86518
lfemur -19.1658 -0.56828 -24.2251
ltibia 30.5833
lfoot -13.4487 10.5307
ltoes 11.0391
830
root 4.51925 17.3565 2.43984 5.7891 -12.2592 -4.81056
lowerback 12.1287 0.315737 4.05968
upperback 4.89279 0.872407 1.13685
thorax -1.62954 0.452929 -1.21904
lowerneck -12.3962 -0.262924 -2.82998
upperneck 35.6475 0.351907 -0.232676
head 14.2804 -0.307326 0.449423
rclavicle -4.02042e-014 -8.19987e-015
rhumerus -31.5855 -3.39548 -17.5186
rradius 34.8809
rwrist 10.8851
rhand -20.609 -45.1924
rfingers 7.12502
rthumb 5.75187 -75.0943
lclavicle -4.02042e-014 -8.19987e-015
lhumerus -29.7905 2.36761 11.7502
lradius 29.0105
lwrist 10.29
lhand -24.865 -32.3485
lfingers 7.12502
lthumb 1.64199 -2.37511
rfemur -99.5017 3.33441 27.9398
rtibia 97.8914
rfoot 47.5011 3.66812
rtoes -8.0955
lfemur -19.0721 -0.595666 -24.1691
ltibia 30.5542
lfoot -13.4548 10.633
ltoes 11.0063
831
root 4.5197 17.3583 2.4404 5.82498 -12.3433 -4.94758
lowerback 12.0958 0.321856 4.18497
upperback 4.87474 0.894035 1.16921
thorax -1.62738 0.464402 -1.25831
lowerneck -12.2334 -0.232924 -2.75451
upperneck 35.5354 0.407676 -0.34602
head 14.1916 -0.286742 0.398335
rclavicle 2.70844e-014 -2.18166e-014
rhumerus -31.5393 -3.41996 -17.5564
rradius 34.7665
rwrist 10.994
rhand -20.8986 -44.5949
rfingers 7.12502
rthumb 5.47221 -74.5043
lclavicle 2.70844e-014 -2.18166e-014
lhumerus -29.7737 2.63244 11.578
lradius 28.877
lwrist 10.0392
lhand -24.5723 -32.9046
lfingers 7.12502
lthumb 1.9246 -2.93354
rfemur -99.4459 3.4689 28.0247
rtibia 97.8985
rfoot 47.5521 3.44869
rtoes -8.09813
lfemur -19.0875 -0.572241 -24.0306
ltibia 30.6321
lfoot -13.5331 10.635
ltoes 11.8028
832
root 4.51921 17.3567 2.43533 5.9044 -12.379 -5.0259
lowerback 12.0564 0.327379 4.23142
upperback 4.84546 0.906307 1.20152
thorax -1.63558 0.470188 -1.25216
lowerneck -12.2874 -0.204389 -2.63144
upperneck 35.597 0.471899 -0.497145
head 14.2322 -0.264028 0.32493
rclavicle -7.71533e-015 -2.07233e-014
rhumerus -31.5136 -3.42168 -17.5798
rradius 34.6705
rwrist 10.9058
rhand -21.3631 -44.2039
rfingers 7.12502
rthumb 5.02373 -74.1243
lclavicle -7.71533e-015 -2.07233e-014
lhumerus -29.6928 2.82343 11.4733
lradius 28.7732
lwrist 9.98066
lhand -24.6577 -32.5376
lfingers 7.12502
lthumb 1.84215 -2.56578
rfemur -99.4986 3.56913 28.0563
rtibia 97.8885
rfoot 47.7916 3.41259
rtoes -7.84436
lfemur -19.225 -0.524086 -23.9476
ltibia 30.796
lfoot -13.654 10.5967
ltoes 12.7864
833
root 4.51822 17.3519 2.42129 6.02383 -12.4188 -5.11284
lowerback 12.1411 0.320883 4.23506
upperback 4.79792 0.905397 1.2362
thorax -1.73178 0.467006 -1.21944
lowerneck -12.5743 -0.160785 -2.44392
upperneck 35.8072 0.562084 -0.681655
head 14.395 -0.22908 0.230077
rclavicle -7.46685e-015 1.9133e-014
rhumerus -31.4335 -3.50314 -17.6289
rradius 34.5961
rwrist 10.9485
rhand -21.5615 -44.2555
rfingers 7.12502
rthumb 4.83216 -74.1804
lclavicle -7.46685e-015 1.9133e-014
lhumerus -29.7491 2.83275 11.4039
lradius 28.9435
lwrist 10.2846
lhand -24.9588 -31.1071
lfingers 7.12502
lthumb 1.55131 -1.133
rfemur -99.6161 3.71655 28.0913
rtibia 97.8245
rfoot 48.0558 3.5645
rtoes -7.10578
lfemur -19.4806 -0.424818 -23.8368
ltibia 30.9568
lfoot -13.692 10.5341
ltoes 13.0864
834
root 4.51861 17.3495 2.4121 6.08524 -12.4493 -5.23196
lowerback 12.2234 0.312247 4.3223
upperback 4.77147 0.910322 1.27608
thorax -1.80266 0.468101 -1.22878
lowerneck -12.6322 -0.141633 -2.40668
upperneck 35.8218 0.599386 -0.730494
head 14.415 -0.215212 0.209254
rclavicle -3.55328e-015 1.49089e-014
rhumerus -31.4533 -3.39492 -17.7081
rradius 34.7039
rwrist 10.9933
rhand -21.5984 -44.5768
rfingers 7.12502
rthumb 4.79657 -74.5025
lclavicle -3.55328e-015 1.49089e-014
lhumerus -29.7886 2.73625 11.3926
lradius 29.0304
lwrist 10.458
lhand -25.3352 -30.398
lfingers 7.12502
lthumb 1.18779 -0.421517
rfemur -99.6544 3.81988 28.1699
rtibia 97.7953
rfoot 48.1947 3.52194
rtoes -6.25111
lfemur -19.6234 -0.336183 -23.698
ltibia 31.0583
lfoot -13.7244 10.474
ltoes 13.0783
